# xmcd
#
# Track frame offsets:
#	150
#	14195
#	30200
#	53575
#	69332
#	81279
#	96279
#	109850
#	124452
#	141687
#	162107
#	175205
#	187500
#	206877
#
# Disc length: 2934 seconds
#
# Revision: 2
# Processed by: cddbd v1.5.2PL0 Copyright (c) Steve Scherf et al.
# Submitted via: audiograbber 1.83.01
#
DISCID=c20b740e
DTITLE=Various Artist - Mr. Music Country 05-95
DYEAR=1995
DGENRE=Country
TTITLE0=Becky Hobbs - I'll Take the Fifth
TTITLE1=George Strait - Adalida
TTITLE2=Conway Twitty with Sam Moore - A Rainy Night in Georgia
TTITLE3=Emmylou Harris - Crescent City
TTITLE4=Joe Diamond - Corpus Christi Sun
TTITLE5=Tracy Byrd - Redneck Roses
TTITLE6=George Jones - Silent Partners
TTITLE7=Barbara St. James - The Fiddler
TTITLE8=Mark Chesnutt with Waylon Jennings: - Rainy Day Woman
TTITLE9=Trisha Yearwood with Emmylou Harris - Woman Walk the Line
TTITLE10=Marty Stuart - If I Ain't Got You
TTITLE11=Dawn Sears - Close Up the Honky Tonks
TTITLE12=Mark Collie - Ring of Fire
TTITLE13=Judy Bailey - There's a Lot of Good in Good-Bye
EXTD=
EXTT0=
EXTT1=
EXTT2=
EXTT3=
EXTT4=
EXTT5=
EXTT6=
EXTT7=
EXTT8=
EXTT9=
EXTT10=
EXTT11=
EXTT12=
EXTT13=
PLAYORDER=
